<svg xmlns="http://www.w3.org/2000/svg" width="269" height="128" viewBox="0 0 269 128" fill="none"><path d="M61.4599 67.3398H39.33V71.1898H61.4599V67.3398Z" fill="white"></path><path d="M61.32 75.0902C60.71 77.5502 50.29 81.6602 50.29 81.6602L50.25 81.6402L50.21 81.6602C50.21 81.6602 39.8 77.5502 39.18 75.0902C39.13 74.8902 39.23 74.6302 39.34 73.9302H61.14C61.27 74.6302 61.36 74.8902 61.32 75.0902Z" fill="white"></path><path d="M96.66 95.5599C95.83 91.4899 92.78 88.2599 88.79 87.1299C85.96 86.3299 83.2 85.2999 80.57 84.2899C75.06 82.1699 69.87 79.4599 64.45 77.1899L61.59 92.4799C56.61 86.8699 50.84 85.2399 50.25 85.0899C50.22 85.0799 50.2 85.0799 50.2 85.0799C50.2 85.0799 50.18 85.0799 50.15 85.0699C50.06 85.0499 49.96 85.0399 49.87 85.0399C49.78 85.0399 49.68 85.0499 49.59 85.0699C49.56 85.0699 49.54 85.0799 49.54 85.0799C49.54 85.0799 49.52 85.0899 49.49 85.0899C48.91 85.2399 43.13 86.86 38.15 92.4799L35.29 77.1899C29.86 79.4599 24.67 82.1599 19.17 84.2899C16.54 85.3099 13.77 86.3299 10.95 87.1299C6.96 88.2599 3.9 91.4899 3.08 95.5599C2.2 99.8899 1.17 104.43 0 109.1C9.88 119.25 25.56 126.25 43.57 127.58C43.95 127.61 44.34 127.63 44.73 127.66C45.61 127.71 46.5 127.75 47.39 127.78C48.21 127.8 49.04 127.82 49.87 127.82C50.7 127.82 51.53 127.8 52.35 127.78C53.24 127.75 54.13 127.71 55.01 127.66C55.4 127.64 55.78 127.61 56.17 127.58C74.18 126.25 89.86 119.25 99.74 109.1C98.57 104.43 97.54 99.8899 96.66 95.5599ZM44.36 110.92C44.37 110.94 44.37 110.99 44.36 111.06C44.3 111.42 44.25 111.79 44.21 112.16C44.2 112.25 44.19 112.34 44.18 112.42C43.53 118.3 44.38 125.75 44.38 125.75L43.59 121.49C43.59 121.51 43.59 121.54 43.59 121.56L38.48 94.2099C40.27 91.9499 42.62 89.5199 45.01 87.8299C45.19 88.7999 45.7 91.3799 45.97 92.3099C46.41 93.8399 47.25 94.9699 48.12 95.7699C47 99.6799 45.34 103.66 44.36 110.92ZM57.44 114.77L55.39 125.75C55.39 125.75 55.41 125.61 55.43 125.35C55.57 123.95 56.01 119.06 55.76 114.47C54.9 104.87 52.89 100.28 51.61 95.7599C52.48 94.9599 53.32 93.8299 53.76 92.2999C54.03 91.3699 54.53 88.7899 54.72 87.8199C57.11 89.5099 59.46 91.9399 61.25 94.1999L57.42 114.73C57.44 114.75 57.44 114.77 57.44 114.77Z" fill="white"></path><path d="M44.4599 18.0899L44.44 18.1199C44.43 18.1399 44.4199 18.1499 44.4099 18.1699L44.39 18.1999C44.37 18.2199 44.35 18.2499 44.33 18.2699L44.2599 18.3499C44.1699 18.4499 44.06 18.5399 43.94 18.6399C43.91 18.6699 43.87 18.6899 43.83 18.7199L43.6499 18.8499C43.6199 18.8699 43.59 18.8899 43.55 18.9099L43.44 18.9799C43.42 18.9899 43.3999 18.9999 43.3799 19.0099L43.33 19.0399C43.28 19.0699 43.23 19.0999 43.17 19.1299L43.11 19.1599C42.81 19.3299 42.4899 19.4999 42.1799 19.6599C42.1299 19.6899 42.0899 19.7099 42.0399 19.7299L41.8199 19.8499C41.7799 19.8699 41.74 19.8899 41.69 19.9199L41.61 19.9599C41.47 20.0399 41.3299 20.1099 41.1799 20.2099L40.9299 20.3699L41.22 20.4399C41.41 20.4799 41.5999 20.5099 41.7899 20.5299C41.8799 20.5399 41.97 20.5399 42.08 20.5499C42.14 20.5499 42.1999 20.5499 42.2599 20.5499C42.2999 20.5499 42.3299 20.5499 42.3699 20.5499C42.7699 20.5399 43.1599 20.4899 43.5199 20.3999L43.6599 20.3599C43.6899 20.3499 43.7299 20.3399 43.7599 20.3299L43.81 20.3199C43.91 20.2899 43.9999 20.2499 44.0999 20.2199C44.1799 20.1899 44.2699 20.1499 44.3499 20.1099L44.44 20.0699C44.52 20.0299 44.6 19.9899 44.67 19.9399C44.75 19.8899 44.8299 19.8399 44.9099 19.7799L44.95 19.7499C45.04 19.6799 45.1299 19.6099 45.2099 19.5299C45.2299 19.5099 45.25 19.4899 45.28 19.4599L45.34 19.3999C45.38 19.3499 45.4299 19.3099 45.4599 19.2599L45.4799 19.2299C45.5099 19.1899 45.55 19.1499 45.58 19.0999L45.61 19.0599C45.64 19.0199 45.67 18.9799 45.69 18.9399L45.7099 18.8999C45.7399 18.8599 45.7599 18.8099 45.7899 18.7599L45.81 18.7299C45.84 18.6799 45.8599 18.6299 45.8799 18.5799C45.9099 18.5199 45.93 18.4499 45.95 18.3899L46.0099 18.1899C46.0799 17.9299 46.1099 17.6499 46.0999 17.3799C46.0799 16.8999 45.95 16.4299 45.72 15.9699C45.53 15.5899 45.27 15.2399 44.97 14.9299C44.82 14.7799 44.6699 14.6399 44.5099 14.5299C44.3199 14.3899 44.1599 14.2799 43.9899 14.2099L43.69 14.0699L44.08 14.9799C44.15 15.1399 44.2099 15.2999 44.2699 15.4499C44.4199 15.8299 44.5199 16.1699 44.5999 16.4699C44.6799 16.8099 44.71 17.1099 44.69 17.3599C44.67 17.6099 44.5999 17.8299 44.4599 18.0399C44.4799 18.0599 44.4699 18.0699 44.4599 18.0899Z" fill="#F8D525"></path><path d="M49.0199 12.5199C49.0199 12.4399 49.0199 12.3599 49.0099 12.2799C48.9999 12.1299 48.9899 11.9699 48.9699 11.8099C48.9299 11.4499 48.8599 11.1399 48.7499 10.8399C48.6299 10.4799 48.4499 10.1699 48.2399 9.90991C48.0199 9.62991 47.7299 9.39991 47.4199 9.24991C47.1399 9.10991 46.8499 9.0099 46.5099 8.9599C46.3699 8.9399 46.2199 8.91991 46.0699 8.91991C45.9999 8.91991 45.9299 8.91991 45.8499 8.91991L45.6199 8.9299C45.3399 8.9499 45.0499 9.0099 44.7299 9.1299C44.1299 9.3399 43.6199 9.6499 43.2399 9.8999C42.8299 10.1699 42.4199 10.4699 41.9399 10.8699C41.5699 11.1799 41.1799 11.5299 40.7499 11.9399C40.5599 12.1199 40.3699 12.3099 40.1799 12.4999L39.8299 12.8599C39.6199 12.7599 39.3999 12.6799 39.1899 12.6199C38.8299 12.5299 38.4699 12.4999 38.1199 12.5399C37.7799 12.5699 37.4299 12.6699 37.0899 12.8199L36.8599 12.9299C36.8099 12.9599 36.7599 12.9799 36.7199 13.0099L36.4099 13.2099C36.3399 13.2599 36.2699 13.3099 36.2099 13.3599C35.9699 13.5499 35.7199 13.7499 35.4699 13.9899C35.0099 14.4299 34.5599 14.9099 34.1599 15.4399C33.9399 15.7299 33.7499 15.9899 33.5899 16.2399C33.4099 16.5099 33.2399 16.7899 33.0699 17.0799C32.4099 18.2399 31.9299 19.4999 31.6299 20.8299C31.6199 20.8799 31.6099 20.9299 31.6099 20.9799C31.5499 21.0399 31.4999 21.0999 31.4399 21.1599C31.2699 21.3599 31.1299 21.5799 30.9999 21.8199C30.8799 22.0399 30.7899 22.2699 30.6999 22.5199C30.3799 23.4399 30.2699 24.4499 30.3699 25.4599L30.4699 26.1799C30.5099 26.4099 30.5499 26.6399 30.5999 26.8799C30.6999 27.3799 30.7999 27.8299 30.9099 28.2599C30.9399 28.3499 31.0199 28.3999 31.1099 28.3799C31.1499 28.3699 31.1899 28.3499 31.2199 28.3099C31.2499 28.2699 31.2599 28.2199 31.2499 28.1799C31.1799 27.7599 31.1199 27.3099 31.0699 26.7999C31.0499 26.5699 31.0299 26.3399 31.0099 26.1099C30.9999 25.9999 30.9899 25.8899 30.9899 25.7699L30.9799 25.4299C30.9699 24.5299 31.1499 23.6399 31.4999 22.8799C31.6799 22.4699 31.8999 22.1399 32.1499 21.9099C32.3999 21.6699 32.6999 21.4899 33.0699 21.3799C33.3799 21.2799 33.7399 21.2199 34.2099 21.1899C34.6099 21.1599 35.0199 21.1599 35.4499 21.1499L36.9899 21.1399L35.9599 19.9799C35.7999 19.8099 35.6899 19.6499 35.6399 19.4999L35.6199 19.4399L35.5899 19.2399C35.5899 19.1399 35.5999 19.0499 35.6299 18.9499C35.6899 18.7499 35.8199 18.5299 35.9899 18.3199C36.1599 18.1199 36.3599 17.9299 36.5799 17.7799C36.6399 17.7399 36.6699 17.6599 36.6499 17.5799C36.6399 17.5299 36.6099 17.4899 36.5599 17.4599C36.5199 17.4399 36.4699 17.4299 36.4299 17.4499C36.2999 17.4899 36.1599 17.5399 36.0099 17.6099C35.8699 17.6699 35.7399 17.7399 35.6099 17.8299C35.2899 18.0299 35.0599 18.2499 34.8799 18.5299C34.7699 18.6999 34.6799 18.8799 34.6299 19.0699C34.5699 19.2799 34.5499 19.4999 34.5599 19.6999L34.5699 19.8099C34.4099 19.8299 34.2499 19.8599 34.0899 19.8899C33.8299 19.9399 33.4999 19.9999 33.1599 20.1199C33.4199 19.3099 33.7499 18.5299 34.1699 17.7999C34.3199 17.5399 34.4799 17.2799 34.6399 17.0399C34.8099 16.7899 34.9799 16.5499 35.1599 16.3199C35.5199 15.8499 35.9199 15.4199 36.3299 15.0199C36.5499 14.8199 36.7599 14.6299 36.9799 14.4699C37.0299 14.4299 37.0799 14.3999 37.1399 14.3499L37.3599 14.2099C37.3899 14.1899 37.4199 14.1699 37.4499 14.1599L37.6199 14.0799C37.8499 13.9799 38.0799 13.9199 38.2899 13.8999C38.5099 13.8799 38.7399 13.8999 38.9599 13.9499C39.3799 14.0599 39.8299 14.3199 40.2399 14.7099C40.4399 14.8899 40.6299 15.0999 40.7999 15.3199C40.8899 15.4299 40.9699 15.5399 41.0499 15.6599C41.0899 15.7199 41.1299 15.7799 41.1699 15.8399C41.1899 15.8699 41.2099 15.8899 41.2199 15.9299L41.2799 16.0299C41.3699 16.1899 41.5099 16.2899 41.6799 16.3299C41.8399 16.3699 41.9999 16.3299 42.1399 16.2399C42.4199 16.0399 42.4999 15.6399 42.3299 15.3299L42.2399 15.1699C42.2199 15.1399 42.1999 15.1099 42.1899 15.0899C42.1399 15.0099 42.0899 14.9399 42.0499 14.8699C41.9499 14.7299 41.8499 14.5899 41.7399 14.4599C41.5199 14.1899 41.2899 13.9399 41.0499 13.7099C41.0399 13.6999 41.0199 13.6899 41.0099 13.6699L41.1099 13.5699C41.2899 13.3899 41.4699 13.2199 41.6599 13.0399C42.0599 12.6699 42.4299 12.3399 42.7899 12.0499C43.2099 11.7099 43.5999 11.4299 43.9699 11.1899C44.4199 10.8999 44.8199 10.6999 45.1799 10.5799C45.3899 10.5099 45.5899 10.4699 45.7499 10.4599H45.8999C45.9499 10.4599 46.0099 10.4599 46.0599 10.4599C46.1599 10.4699 46.2599 10.4799 46.3599 10.4899C46.5599 10.5199 46.7299 10.5799 46.8799 10.6499C47.0299 10.7299 47.1499 10.8299 47.2499 10.9599C47.3499 11.0899 47.4299 11.2499 47.4999 11.4299C47.5599 11.6099 47.6099 11.8199 47.6299 12.0599C47.6399 12.1699 47.6499 12.2899 47.6599 12.4099V12.5899L47.6399 23.4799L47.6999 39.8799C47.6899 40.2999 47.5799 40.7699 47.3999 41.2099C47.2199 41.6399 46.9799 42.0499 46.6899 42.4099C46.3899 42.7699 46.0599 43.0799 45.6899 43.3099C45.3099 43.5499 44.9099 43.7099 44.4999 43.7699C44.0899 43.8399 43.6699 43.8099 43.2599 43.6899L43.2099 43.6699C43.1799 43.6599 43.1399 43.6499 43.1099 43.6299L42.9599 43.5699C42.9299 43.5599 42.9099 43.5499 42.8799 43.5299L42.8099 43.4899C42.7799 43.4699 42.7499 43.4499 42.7099 43.4299C42.5299 43.3099 42.3499 43.1799 42.1899 43.0199C41.8699 42.7099 41.5799 42.3399 41.3399 41.8999C41.1699 41.5899 41.0299 41.2799 40.9299 40.9499C40.9799 40.9299 41.0399 40.9099 41.0899 40.8899C41.3199 40.7999 41.5699 40.6699 41.8299 40.4999C42.0399 40.3699 42.2499 40.2199 42.4999 40.0099C42.6899 39.8499 42.8899 39.6599 43.0999 39.4499C43.2899 39.2499 43.4799 39.0399 43.6399 38.8399C43.7999 38.6499 43.9599 38.4399 44.1399 38.1899C44.2899 37.9699 44.4499 37.7399 44.5899 37.5099C44.7199 37.2899 44.8699 37.0499 44.9999 36.7999C45.0599 36.6799 45.0299 36.5199 44.9199 36.4399C44.8599 36.3999 44.7899 36.3799 44.7199 36.3899C44.6499 36.3999 44.5799 36.4499 44.5399 36.5099L44.5299 36.5299C44.4099 36.7199 44.2699 36.9199 44.0999 37.1499C43.9599 37.3499 43.7999 37.5499 43.6299 37.7599C43.4699 37.9499 43.3099 38.1299 43.1199 38.3299C42.9499 38.5099 42.7699 38.6799 42.5799 38.8499C42.3599 39.0399 42.1799 39.1899 42.0099 39.3099C41.8499 39.4199 41.6399 39.5699 41.4099 39.6799C41.1799 39.7999 40.9799 39.8799 40.7899 39.9399C40.5899 39.9999 40.3999 40.0399 40.2399 40.0499C39.8999 39.9999 39.6099 39.9399 39.3399 39.8699C39.0399 39.7899 38.7599 39.6899 38.4899 39.5699C37.9399 39.3199 37.4699 38.9499 37.1199 38.5099C36.9399 38.2799 36.7899 38.0299 36.6599 37.7599L36.6399 37.7099C36.6199 37.6599 36.5899 37.5999 36.5699 37.5499L36.4699 37.2699C36.4299 37.1399 36.3899 37.0199 36.3599 36.8799L36.3299 36.7699C36.3199 36.7499 36.3199 36.7299 36.3199 36.7099L36.2999 36.5999C36.2899 36.5399 36.2799 36.4899 36.2699 36.4299L36.2499 36.2999C36.2299 36.1799 36.2099 36.0699 36.1999 35.9499C36.1599 35.6299 36.1599 35.2999 36.1499 34.9699L36.1399 34.3399L35.5199 34.1299C34.9999 34.0099 34.5899 33.8999 34.2199 33.7599C33.7799 33.5999 33.3999 33.3999 33.1099 33.1799C32.9499 33.0599 32.8099 32.9199 32.6899 32.7799C32.5699 32.6299 32.4799 32.4699 32.4199 32.2999C32.3999 32.2499 32.3899 32.2099 32.3799 32.1599L32.3399 31.9999C32.3299 31.9599 32.3199 31.9199 32.3199 31.8799L32.3099 31.7999C32.3099 31.7799 32.3099 31.7499 32.2999 31.7199C32.2899 31.5099 32.2999 31.2699 32.3299 31.0399C32.4399 30.0899 32.8499 29.2099 33.4899 28.5599C33.6299 28.4099 33.7999 28.2599 33.9999 28.0999L34.1499 27.9999L34.5899 27.7199C34.9799 27.4999 35.4099 27.3199 35.8799 27.1799C35.9899 27.1499 36.0599 27.0299 36.0499 26.9099C36.0399 26.8399 36.0099 26.7799 35.9499 26.7399C35.8999 26.6999 35.8399 26.6899 35.7799 26.6999C35.2699 26.7899 34.7799 26.9299 34.3299 27.1299L34.2799 27.1499C34.2399 27.1699 34.1999 27.1899 34.1499 27.2099L33.6299 27.4899C33.3799 27.6499 33.1699 27.7999 32.9799 27.9599C32.7699 28.1399 32.5699 28.3399 32.3999 28.5399C32.2199 28.7499 32.0599 28.9899 31.9099 29.2299C31.6199 29.7199 31.4099 30.2599 31.2799 30.8499C31.2099 31.1599 31.1799 31.4499 31.1599 31.7399C31.1599 31.7799 31.1599 31.8199 31.1599 31.8599V31.8999C31.1599 31.9299 31.1599 31.9599 31.1599 31.9799C31.1599 32.0599 31.1699 32.1499 31.1799 32.2299L31.2099 32.4799C31.2199 32.5599 31.2399 32.6399 31.2599 32.7299C31.3399 33.0499 31.4799 33.3499 31.6599 33.6399C31.8199 33.8999 32.0199 34.1399 32.2499 34.3599C32.6299 34.7199 33.0899 35.0299 33.6499 35.3099C33.8599 35.4199 34.0999 35.5299 34.3699 35.6399L34.5399 35.7099C34.5599 35.8799 34.5899 36.0699 34.6199 36.2599C34.6499 36.4199 34.6799 36.5799 34.7199 36.7399L34.7499 36.8499C34.7699 36.9099 34.7799 36.9699 34.7999 37.0299L34.8499 37.1999C34.8599 37.2299 34.8699 37.2599 34.8799 37.2899L34.9299 37.4299C35.1999 38.2399 35.6199 38.9699 36.1499 39.5399C36.6699 40.0999 37.3399 40.5399 38.0799 40.7999C38.6199 40.9899 39.2199 41.1099 39.9199 41.1699C40.0399 41.6399 40.2099 42.0999 40.4399 42.5299C40.7199 43.0799 41.0599 43.5599 41.4599 43.9599C41.6899 44.1899 41.9099 44.3699 42.1399 44.5199C42.1999 44.5599 42.2499 44.5899 42.3399 44.6399L42.3999 44.6699C42.4499 44.6999 42.4999 44.7299 42.5499 44.7499L42.7499 44.8299C42.7899 44.8499 42.8399 44.8599 42.8799 44.8799L42.9599 44.9099C43.3599 45.0399 43.7799 45.1099 44.1899 45.1099C44.3499 45.1099 44.5099 45.0999 44.6699 45.0799C45.2199 45.0099 45.7899 44.8099 46.2999 44.4999C46.7899 44.2099 47.2299 43.8199 47.6299 43.3599C48.0199 42.8999 48.3399 42.3899 48.5699 41.8299C48.9199 41.0199 48.9799 40.2499 49.0199 39.3199C49.0699 38.0699 49.0599 36.7999 49.0599 35.5699C49.0599 34.9699 49.0499 34.3799 49.0499 33.7799C49.0499 32.9299 49.0599 32.0899 49.0599 31.2399C49.0699 30.1999 49.0699 29.1499 49.0799 28.1099L49.0899 27.1799C49.0899 26.4099 49.0899 26.0599 49.0699 25.9099H49.0299L49.0199 12.5199Z" fill="#F8D525"></path><path d="M43.8999 29.8899C43.8799 30.2999 43.85 30.6599 43.81 30.9899C43.76 31.3599 43.69 31.6899 43.61 32.0099C43.52 32.3299 43.4099 32.6399 43.2699 32.9399C43.2199 33.0499 43.16 33.1599 43.11 33.2699L43.03 33.4099C42.99 33.4699 42.9599 33.5299 42.9099 33.6099L42.6499 33.9899C42.6199 34.0199 42.6 34.0499 42.58 34.0899C42.55 34.1199 42.53 34.1599 42.5 34.1899C42.44 34.2499 42.39 34.3199 42.33 34.3899C42.3 34.4399 42.26 34.4799 42.22 34.5199L42.17 34.5699C42.14 34.5999 42.11 34.6299 42.09 34.6599C42.06 34.6899 42.0299 34.7299 41.9799 34.7799C41.9199 34.8399 41.87 34.8899 41.81 34.9499L41.6199 35.1299C41.5499 35.1899 41.49 35.2599 41.42 35.3199L41.2899 35.4399C41.2599 35.4599 41.2399 35.4799 41.2099 35.5099L41.1499 35.5699C41.0999 35.6099 41.0499 35.6599 41.0099 35.6999C40.8599 35.8299 40.7099 35.9499 40.5699 36.0999L40.3499 36.3199H40.6599C40.8399 36.3199 41.03 36.2999 41.25 36.2699C41.44 36.2299 41.6299 36.1899 41.8199 36.1299C41.9099 36.0999 41.9999 36.0699 42.0999 36.0299C42.1499 36.0099 42.19 35.9999 42.25 35.9699L42.3799 35.9099C42.4699 35.8699 42.5599 35.8199 42.6499 35.7799C42.7199 35.7399 42.7899 35.6999 42.8499 35.6599L42.9099 35.6299C43.0599 35.5399 43.2 35.4299 43.33 35.3299L43.42 35.2599C43.49 35.1999 43.5599 35.1299 43.6299 35.0599L43.69 34.9999C43.72 34.9699 43.7399 34.9499 43.7699 34.9199L43.8699 34.7999C43.9099 34.7599 43.9399 34.7199 43.9799 34.6799L44.03 34.6199C44.04 34.5999 44.06 34.5799 44.08 34.5499C44.13 34.4699 44.1899 34.3999 44.2399 34.3199L44.2699 34.2699C44.3099 34.1999 44.35 34.1299 44.39 34.0599L44.59 33.6699C44.78 33.2599 44.9099 32.8199 44.9799 32.3599C45.0499 31.9199 45.0599 31.4699 45.0199 31.0199C44.9799 30.5899 44.8799 30.1599 44.7399 29.7499C44.7199 29.6999 44.6999 29.6499 44.6799 29.5999L44.6599 29.5599C44.6499 29.5199 44.6299 29.4899 44.6199 29.4499L44.5999 29.4099C44.5599 29.3299 44.5199 29.2399 44.4799 29.1599C44.3599 28.9299 44.2499 28.7699 44.1299 28.6199L43.8999 28.3499V28.6999C43.9199 29.1399 43.9199 29.5099 43.8999 29.8899Z" fill="#F8D525"></path><path d="M40.05 23.5199C39.89 23.6599 39.74 23.8099 39.59 23.9599C39.45 24.1099 39.3099 24.2799 39.1799 24.4699C39.0499 24.6499 38.9299 24.8499 38.8199 25.0599L38.8 25.0999C38.78 25.1399 38.7599 25.1799 38.7399 25.2199L38.67 25.3799C38.65 25.4299 38.6199 25.4899 38.5999 25.5599L38.58 25.6099C38.56 25.6499 38.5499 25.6999 38.5399 25.7399C38.4699 25.9699 38.42 26.2299 38.39 26.5099L38.3799 26.7099V26.8999C38.3799 27.0299 38.4 27.1699 38.42 27.3199C38.47 27.5899 38.55 27.8499 38.67 28.0899C38.88 28.5299 39.17 28.9199 39.55 29.2399C39.9 29.5399 40.31 29.7499 40.72 29.8699C40.95 29.9299 41.1699 29.9599 41.3699 29.9599C41.5999 29.9599 41.81 29.9199 42 29.8599L42.2899 29.7499L42.0099 29.6199C41.8299 29.5399 41.6699 29.4499 41.5199 29.3599C41.3599 29.2599 41.22 29.1599 41.09 29.0499C40.83 28.8299 40.5999 28.5799 40.3999 28.2999C40.1999 28.0199 40.0499 27.7299 39.9599 27.4699C39.9099 27.3299 39.8799 27.1899 39.8699 27.0799C39.8699 27.0599 39.8699 27.0399 39.8699 27.0199C39.8699 27.0099 39.8699 26.9899 39.8699 26.9799V26.9399C39.8699 26.9199 39.8699 26.8999 39.8699 26.8699V26.7599L39.8799 26.6499C39.8999 26.3799 39.9799 26.0699 40.0999 25.7399C40.1599 25.5999 40.22 25.4299 40.31 25.2599C40.39 25.0999 40.47 24.9399 40.56 24.7699C40.74 24.4399 40.95 24.0999 41.14 23.7799C41.2 23.6799 41.27 23.5699 41.34 23.4699L41.4899 23.2399C41.5899 23.0799 41.6899 22.9199 41.7899 22.7499L41.9599 22.4599L41.64 22.5599C41.47 22.6099 41.2899 22.6899 41.0699 22.8099C40.8999 22.8999 40.73 22.9999 40.55 23.1299C40.38 23.2499 40.22 23.3699 40.05 23.5199Z" fill="#F8D525"></path><path d="M56.0099 15.4499C56.0699 15.2899 56.14 15.1299 56.2 14.9699L56.59 14.0599L56.2899 14.1999C56.1299 14.2799 55.9599 14.3799 55.7699 14.5199C55.6099 14.6399 55.46 14.7699 55.31 14.9199C55 15.2299 54.75 15.5799 54.56 15.9599C54.33 16.4199 54.1999 16.8899 54.1799 17.3699C54.1699 17.6399 54.1999 17.9199 54.2699 18.1999C54.2799 18.2299 54.2799 18.2599 54.2899 18.2899L54.3199 18.3799C54.3399 18.4499 54.37 18.5099 54.39 18.5699C54.41 18.6199 54.4399 18.6699 54.4599 18.7199L54.4799 18.7499C54.4999 18.7999 54.53 18.8399 54.56 18.8899L54.58 18.9299C54.61 18.9699 54.6299 19.0099 54.6599 19.0499L54.69 19.0899C54.72 19.1399 54.7499 19.1799 54.7899 19.2199L54.81 19.2399C54.85 19.2899 54.8899 19.3399 54.9299 19.3799L54.9899 19.4499C55.0099 19.4699 55.03 19.4899 55.05 19.5099C55.14 19.5899 55.2299 19.6699 55.3199 19.7399L55.36 19.7699C55.44 19.8299 55.5199 19.8799 55.5999 19.9299C55.6799 19.9799 55.76 20.0199 55.84 20.0599L55.9299 20.0999C56.0099 20.1399 56.0999 20.1799 56.1799 20.2099C56.2799 20.2499 56.37 20.2799 56.47 20.3199L56.5199 20.3299C56.5499 20.3399 56.5799 20.3499 56.6199 20.3599L56.7599 20.3999C57.1299 20.4899 57.5099 20.5499 57.9099 20.5499C57.9399 20.5499 57.9799 20.5499 58.0099 20.5499C58.0699 20.5499 58.1399 20.5499 58.2099 20.5499C58.2999 20.5499 58.3899 20.5399 58.4799 20.5299C58.6799 20.5099 58.87 20.4799 59.06 20.4399L59.3499 20.3699L59.0999 20.2099C58.9599 20.1199 58.81 20.0399 58.67 19.9599L58.59 19.9099C58.55 19.8899 58.5099 19.8699 58.4799 19.8499L58.2599 19.7299C58.2099 19.7099 58.1699 19.6799 58.1199 19.6499C57.8199 19.4899 57.49 19.3199 57.2 19.1499L57.14 19.1199C57.09 19.0899 57.0299 19.0599 56.9799 19.0299L56.9299 18.9999C56.9099 18.9899 56.8899 18.9799 56.8499 18.9499L56.7699 18.8999C56.7399 18.8799 56.71 18.8599 56.67 18.8299L56.5 18.7099C56.46 18.6799 56.43 18.6599 56.39 18.6299C56.27 18.5299 56.1599 18.4299 56.0699 18.3399L56 18.2699C55.98 18.2499 55.96 18.2199 55.94 18.1999L55.92 18.1699C55.91 18.1499 55.8999 18.1399 55.8799 18.1199L55.86 18.0899C55.85 18.0799 55.84 18.0599 55.83 18.0399C55.7 17.8299 55.63 17.6199 55.61 17.3599C55.59 17.0999 55.62 16.7999 55.7 16.4699C55.75 16.1699 55.8599 15.8399 56.0099 15.4499Z" fill="#F8D525"></path><path d="M69.6199 22.5099C69.5299 22.2499 69.4299 22.0199 69.3199 21.8099C69.1899 21.5699 69.0499 21.3499 68.8799 21.1499C68.8299 21.0899 68.7699 21.0299 68.7099 20.9699C68.7099 20.9199 68.7 20.8699 68.69 20.8099C68.39 19.4799 67.91 18.2199 67.25 17.0599C67.08 16.7699 66.9099 16.4799 66.7299 16.2199C66.5699 15.9699 66.3799 15.7099 66.1599 15.4199C65.7599 14.8999 65.3199 14.4099 64.8499 13.9699C64.5899 13.7299 64.35 13.5199 64.11 13.3399C64.04 13.2899 63.9799 13.2399 63.9099 13.1899L63.5999 12.9899C63.5499 12.9599 63.5 12.9299 63.45 12.9099L63.22 12.7999C62.88 12.6499 62.53 12.5599 62.19 12.5199C61.83 12.4799 61.4699 12.5099 61.1199 12.5999C60.9099 12.6499 60.6899 12.7299 60.4799 12.8399L60.1299 12.4799C59.9399 12.2899 59.75 12.0999 59.56 11.9199C59.13 11.5099 58.7399 11.1599 58.3699 10.8499C57.8899 10.4599 57.4799 10.1499 57.0699 9.8799C56.6899 9.6299 56.18 9.32991 55.58 9.10991C55.25 8.99991 54.9699 8.93991 54.6799 8.90991L54.45 8.8999C54.38 8.8999 54.3099 8.8999 54.2299 8.8999C54.0799 8.9099 53.9299 8.91991 53.7899 8.93991C53.4499 8.98991 53.1499 9.0899 52.8799 9.2299C52.5699 9.3899 52.28 9.61991 52.06 9.88991C51.85 10.1499 51.67 10.4699 51.55 10.8199C51.45 11.1099 51.38 11.4299 51.33 11.7899C51.31 11.9499 51.2999 12.0999 51.2899 12.2599C51.2899 12.3399 51.28 12.4099 51.28 12.4999L51.2699 20.1099V25.7899H51.2899C51.2699 25.9499 51.2699 26.2899 51.2699 27.0599L51.28 27.9899C51.28 29.0499 51.29 30.0999 51.3 31.1599L51.31 33.6599C51.31 34.2599 51.31 34.8499 51.3 35.4499C51.29 36.6799 51.28 37.9499 51.34 39.1999C51.38 40.1299 51.4399 40.8999 51.7899 41.7099C52.0299 42.2599 52.3499 42.7799 52.7299 43.2399C53.1199 43.7099 53.57 44.0899 54.06 44.3799C54.57 44.6899 55.14 44.8899 55.69 44.9599C55.85 44.9799 56.01 44.9899 56.17 44.9899C56.58 44.9899 56.9999 44.9199 57.4099 44.7899L57.4799 44.7699C57.5199 44.7599 57.57 44.7399 57.61 44.7199L57.81 44.6399C57.86 44.6199 57.9099 44.5899 57.9599 44.5599L58.0399 44.5099C58.0999 44.4799 58.1599 44.4399 58.2099 44.3999C58.4399 44.2499 58.67 44.0599 58.89 43.8399C59.29 43.4399 59.6299 42.9599 59.9099 42.4099C60.1299 41.9799 60.3099 41.5199 60.4299 41.0499C61.1299 40.9999 61.7299 40.8699 62.2699 40.6799C63.0099 40.4199 63.68 39.9799 64.2 39.4199C64.73 38.8499 65.1499 38.1199 65.4099 37.3099L65.4599 37.1699C65.4699 37.1399 65.4799 37.1099 65.4899 37.0799L65.5399 36.9099C65.5599 36.8499 65.57 36.7899 65.59 36.7299L65.61 36.6199C65.65 36.4599 65.6799 36.2999 65.7099 36.1399C65.7499 35.9499 65.77 35.7599 65.8 35.5899L65.9799 35.5199C66.2499 35.4099 66.49 35.2999 66.7 35.1899C67.26 34.9099 67.7199 34.5999 68.0999 34.2399C68.3299 34.0199 68.53 33.7799 68.69 33.5199C68.87 33.2399 69 32.9299 69.09 32.6099C69.11 32.5299 69.13 32.4499 69.14 32.3699L69.17 32.1299C69.18 32.0399 69.19 31.9599 69.19 31.8799C69.19 31.8499 69.19 31.8199 69.19 31.7999V31.7599C69.19 31.7199 69.19 31.6799 69.19 31.6399C69.18 31.3499 69.1399 31.0499 69.0699 30.7499C68.9399 30.1699 68.73 29.6199 68.44 29.1299C68.3 28.8899 68.13 28.6599 67.95 28.4399C67.78 28.2399 67.5799 28.0399 67.3699 27.8599C67.1899 27.6999 66.97 27.5499 66.72 27.3899L66.2099 27.1199C66.1699 27.0999 66.13 27.0799 66.08 27.0599L66.03 27.0399C65.58 26.8499 65.1 26.7099 64.58 26.6199C64.52 26.6099 64.4599 26.6199 64.4099 26.6599C64.3599 26.6999 64.32 26.7599 64.31 26.8299C64.29 26.9499 64.3599 27.0699 64.4799 27.0999C64.9499 27.2399 65.3799 27.4199 65.7699 27.6399L66.3499 28.0199C66.5599 28.1899 66.7199 28.3299 66.8699 28.4799C67.5099 29.1299 67.92 30.0099 68.03 30.9599C68.06 31.1999 68.07 31.4299 68.06 31.6399C68.06 31.6699 68.06 31.6899 68.05 31.7199L68.0399 31.7999C68.0399 31.8399 68.0299 31.8799 68.0199 31.9399L67.9899 32.0699C67.9799 32.1199 67.96 32.1599 67.95 32.2099C67.88 32.3899 67.79 32.5499 67.67 32.6999C67.56 32.8399 67.42 32.9799 67.25 33.0999C66.95 33.3299 66.58 33.5199 66.14 33.6899C65.78 33.8299 65.36 33.9399 64.83 34.0599L64.2299 34.2599L64.22 34.8899C64.22 35.2099 64.21 35.5499 64.17 35.8799C64.16 35.9999 64.1399 36.1199 64.1199 36.2299L64.0999 36.3599C64.0899 36.4199 64.0799 36.4699 64.0699 36.5299L64.05 36.6399C64.05 36.6599 64.0399 36.6799 64.0399 36.6999L64.0099 36.8199C63.9799 36.9499 63.9399 37.0799 63.8999 37.1999L63.8 37.4699C63.78 37.5199 63.7499 37.5799 63.7299 37.6299L63.7099 37.6799C63.5799 37.9499 63.43 38.2099 63.25 38.4299C62.9 38.8799 62.4199 39.2399 61.8799 39.4899C61.6099 39.6099 61.32 39.7099 61.03 39.7899C60.76 39.8599 60.4699 39.9199 60.1599 39.9699C59.9699 39.9599 59.78 39.9199 59.58 39.8599C59.39 39.7999 59.1899 39.7199 58.9599 39.5999C58.7299 39.4899 58.52 39.3399 58.36 39.2299C58.19 39.1099 58.0099 38.9599 57.7899 38.7699C57.6099 38.6099 57.42 38.4299 57.25 38.2499C57.07 38.0599 56.8999 37.8699 56.7399 37.6799C56.5699 37.4699 56.4099 37.2699 56.2599 37.0699C56.0899 36.8399 55.95 36.6299 55.84 36.4599L55.83 36.4299C55.79 36.3699 55.7299 36.3199 55.6499 36.3099C55.5799 36.2999 55.51 36.3099 55.45 36.3599C55.34 36.4399 55.3099 36.5999 55.3699 36.7199C55.5099 36.9799 55.65 37.2099 55.78 37.4299C55.93 37.6599 56.0799 37.8899 56.2299 38.1099C56.4099 38.3499 56.57 38.5699 56.72 38.7599C56.88 38.9599 57.0699 39.1699 57.2599 39.3699C57.4699 39.5899 57.66 39.7699 57.86 39.9299C58.11 40.1399 58.3199 40.2899 58.5199 40.4199C58.7899 40.5899 59.0299 40.7099 59.2699 40.8099C59.3199 40.8299 59.3799 40.8499 59.4299 40.8699C59.3199 41.1999 59.1899 41.5199 59.0199 41.8199C58.7799 42.2499 58.5 42.6299 58.17 42.9399C58.01 43.0899 57.8299 43.2299 57.6499 43.3499C57.6199 43.3699 57.59 43.3899 57.55 43.4099L57.4799 43.4499C57.4499 43.4599 57.43 43.4799 57.39 43.4899L57.2399 43.5499C57.2099 43.5599 57.17 43.5699 57.14 43.5799L57.09 43.5999C56.68 43.7199 56.2599 43.7499 55.8499 43.6899C55.4399 43.6299 55.0499 43.4699 54.6599 43.2299C54.2899 42.9999 53.9599 42.6999 53.6599 42.3299C53.3699 41.9699 53.13 41.5699 52.95 41.1299C52.77 40.6799 52.6599 40.2199 52.6499 39.7999L52.6799 33.2599L52.7099 23.3999L52.7 13.5399V12.3399C52.71 12.2199 52.7099 12.0999 52.7299 11.9899C52.7599 11.7499 52.8 11.5399 52.86 11.3599C52.92 11.1699 53.01 11.0199 53.11 10.8899C53.21 10.7599 53.3299 10.6599 53.4799 10.5799C53.6199 10.4999 53.8 10.4499 54 10.4199C54.1 10.3999 54.2 10.3899 54.3 10.3899C54.35 10.3899 54.3999 10.3899 54.4599 10.3899H54.61C54.77 10.3999 54.9699 10.4399 55.1799 10.5099C55.5499 10.6299 55.9399 10.8299 56.3999 11.1199C56.7799 11.3599 57.16 11.6399 57.58 11.9799C57.94 12.2699 58.31 12.5899 58.72 12.9699C58.91 13.1399 59.0899 13.3199 59.2699 13.4899L59.3699 13.5899C59.3599 13.5999 59.34 13.6099 59.33 13.6299C59.08 13.8599 58.85 14.1099 58.64 14.3799C58.53 14.5099 58.43 14.6499 58.33 14.7899C58.28 14.8599 58.23 14.9299 58.19 14.9999C58.17 15.0299 58.15 15.0599 58.14 15.0799L58.05 15.2399C57.87 15.5499 57.9599 15.9599 58.2399 16.1499C58.3799 16.2499 58.54 16.2799 58.7 16.2399C58.87 16.1999 59.01 16.0999 59.11 15.9199L59.1599 15.8399C59.1799 15.8099 59.1899 15.7899 59.2099 15.7599C59.2499 15.6999 59.2899 15.6399 59.3199 15.5899C59.3999 15.4799 59.4899 15.3599 59.5699 15.2499C59.7399 15.0299 59.9299 14.8299 60.1299 14.6499C60.5499 14.2599 60.9899 13.9999 61.4099 13.8899C61.6299 13.8299 61.86 13.8099 62.08 13.8399C62.29 13.8599 62.52 13.9199 62.75 14.0199L62.92 14.0999C62.95 14.1199 62.9799 14.1399 63.0199 14.1599L63.2699 14.3199C63.3199 14.3499 63.3599 14.3899 63.4099 14.4199C63.6199 14.5799 63.84 14.7699 64.06 14.9699C64.48 15.3599 64.8699 15.7999 65.2299 16.2699C65.4099 16.4999 65.58 16.7399 65.75 16.9899C65.91 17.2299 66.07 17.4899 66.22 17.7499C66.63 18.4799 66.9699 19.2599 67.2299 20.0699C66.8899 19.9599 66.56 19.8899 66.3 19.8399C66.14 19.8099 65.9799 19.7899 65.8199 19.7599L65.83 19.6499C65.84 19.4499 65.8099 19.2299 65.7599 19.0199C65.7099 18.8299 65.6199 18.6499 65.5099 18.4799C65.3299 18.2099 65.1 17.9899 64.78 17.7799C64.65 17.6999 64.5199 17.6299 64.3799 17.5599C64.2299 17.4899 64.09 17.4399 63.97 17.4099C63.92 17.3899 63.87 17.3999 63.83 17.4199C63.79 17.4399 63.7499 17.4899 63.7399 17.5399C63.7199 17.6199 63.75 17.6899 63.81 17.7399C64.03 17.8899 64.2299 18.0799 64.3999 18.2799C64.5699 18.4899 64.6999 18.7099 64.7599 18.9099C64.7899 19.0099 64.8 19.1099 64.8 19.1999L64.75 19.4599C64.69 19.6199 64.58 19.7799 64.42 19.9499L63.39 21.1099L64.9299 21.1199C65.3599 21.1199 65.77 21.1299 66.17 21.1499C66.64 21.1799 67 21.2399 67.31 21.3399C67.68 21.4499 67.9799 21.6299 68.2299 21.8699C68.4799 22.1099 68.6999 22.4299 68.8799 22.8399C69.2299 23.5999 69.4099 24.4899 69.3999 25.3899L69.39 25.7199C69.38 25.8399 69.3799 25.9499 69.3699 26.0699C69.3499 26.2999 69.33 26.5299 69.31 26.7599C69.26 27.2699 69.1999 27.7199 69.1299 28.1299C69.1199 28.1799 69.1299 28.2299 69.1599 28.2599C69.1899 28.2999 69.2299 28.3299 69.2699 28.3299C69.3599 28.3499 69.44 28.2999 69.47 28.1999C69.58 27.7799 69.68 27.3299 69.78 26.8199C69.83 26.5899 69.8699 26.3599 69.9099 26.1199L70.0099 25.3999C70.0499 24.4499 69.9299 23.4299 69.6199 22.5099Z" fill="#F8D525"></path><path d="M55.71 33.6499L55.91 34.0299C55.95 34.0999 55.99 34.1699 56.04 34.2399L56.07 34.2799C56.12 34.3599 56.18 34.4399 56.24 34.5299C56.25 34.5499 56.27 34.5699 56.28 34.5899L56.33 34.6499C56.36 34.6899 56.4 34.7299 56.44 34.7699L56.55 34.8999C56.58 34.9299 56.6 34.9499 56.63 34.9799L56.69 35.0399C56.76 35.1099 56.83 35.1799 56.91 35.2399L57 35.3099C57.13 35.4199 57.27 35.5299 57.42 35.6099L57.48 35.6499C57.55 35.6899 57.61 35.7399 57.69 35.7799C57.78 35.8299 57.87 35.8699 57.96 35.9099L58.1 35.9799C58.15 35.9999 58.19 36.0199 58.24 36.0299C58.33 36.0599 58.42 36.0999 58.52 36.1299C58.71 36.1899 58.9 36.2299 59.1 36.2699C59.31 36.2999 59.5 36.3099 59.68 36.3199H59.99L59.77 36.0999C59.63 35.9599 59.48 35.8299 59.34 35.7099C59.29 35.6599 59.24 35.6199 59.19 35.5799L59.13 35.5199C59.1 35.4999 59.08 35.4699 59.05 35.4499L58.92 35.3299C58.85 35.2599 58.79 35.1999 58.72 35.1399L58.53 34.9599C58.47 34.8999 58.42 34.8399 58.34 34.7699C58.31 34.7399 58.28 34.6999 58.25 34.6699C58.22 34.6399 58.19 34.6099 58.17 34.5799L58.12 34.5199C58.08 34.4799 58.04 34.4399 58 34.3899C57.94 34.3199 57.89 34.2599 57.84 34.1999C57.81 34.1699 57.79 34.1299 57.76 34.0999C57.74 34.0699 57.71 34.0299 57.69 33.9999L57.42 33.5999C57.38 33.5399 57.34 33.4699 57.29 33.3899L57.23 33.2799C57.17 33.1699 57.12 33.0699 57.07 32.9499C56.94 32.6599 56.82 32.3399 56.73 32.0199C56.64 31.6999 56.58 31.3699 56.53 30.9999C56.49 30.6699 56.45 30.2999 56.44 29.8999C56.42 29.5299 56.42 29.1599 56.43 28.7099V28.3599L56.2 28.6299C56.08 28.7699 55.97 28.9399 55.86 29.1599C55.82 29.2399 55.78 29.3299 55.74 29.4099L55.72 29.4499C55.7 29.4799 55.69 29.5199 55.68 29.5599L55.66 29.5999C55.64 29.6499 55.62 29.6999 55.6 29.7499C55.45 30.1599 55.36 30.5899 55.31 31.0199C55.26 31.4699 55.28 31.9199 55.35 32.3599C55.39 32.7999 55.53 33.2399 55.71 33.6499Z" fill="#F8D525"></path><path d="M61.64 28.0899C61.76 27.8399 61.84 27.5799 61.89 27.3099C61.91 27.1599 61.9299 27.0199 61.9299 26.8899V26.6899L61.92 26.4899C61.89 26.2099 61.8399 25.9599 61.7699 25.7299C61.7599 25.6799 61.7399 25.6399 61.7299 25.5999L61.7099 25.5499C61.6899 25.4899 61.67 25.4299 61.64 25.3799L61.5699 25.2099C61.5499 25.1699 61.5299 25.1299 61.5099 25.0899L61.4899 25.0499C61.3799 24.8399 61.2599 24.6399 61.1299 24.4599C60.9999 24.2699 60.86 24.0999 60.72 23.9499C60.58 23.7899 60.4199 23.6399 60.2599 23.5099C60.0899 23.3699 59.9299 23.2399 59.7699 23.1299C59.5799 22.9999 59.41 22.8999 59.25 22.8099C59.04 22.6999 58.8599 22.6199 58.6799 22.5599L58.36 22.4599L58.53 22.7499C58.63 22.9199 58.74 23.0899 58.84 23.2499L58.9799 23.4799C59.0499 23.5799 59.11 23.6899 59.17 23.7899C59.37 24.1099 59.57 24.4399 59.75 24.7799C59.84 24.9399 59.92 25.0999 60 25.2699C60.08 25.4399 60.1499 25.6099 60.2099 25.7499C60.3399 26.0799 60.4099 26.3899 60.4299 26.6599L60.44 26.7599V26.8799C60.44 26.8999 60.44 26.9299 60.44 26.9499V26.9899C60.44 27.0099 60.44 27.0199 60.44 27.0299C60.44 27.0499 60.44 27.0699 60.44 27.0799C60.43 27.1999 60.3899 27.3399 60.3499 27.4799C60.2599 27.7499 60.1099 28.0299 59.9099 28.3099C59.7099 28.5899 59.48 28.8399 59.22 29.0599C59.09 29.1699 58.9499 29.2699 58.7899 29.3699C58.6399 29.4599 58.48 29.5499 58.3 29.6299L58.0199 29.7599L58.31 29.8699C58.5 29.9399 58.71 29.9699 58.94 29.9699C59.15 29.9699 59.36 29.9399 59.59 29.8799C60.01 29.7699 60.4099 29.5499 60.7599 29.2499C61.1299 28.9199 61.43 28.5299 61.64 28.0899Z" fill="#F8D525"></path><path d="M72.03 10.61C66.81 3.97 58.64 0 50.19 0C45.92 0 41.66 0.999999 37.86 2.89C31.11 6.25 25.9499 12.31 23.6799 19.53L23.6199 19.47L23.19 21.23C20.91 30.63 23.8099 40.8 30.7399 47.75C31.2899 48.42 31.8299 49.13 32.3199 49.87C33.5699 51.7 34.5399 53.62 35.2099 55.57C35.2299 55.63 35.2499 55.68 35.2699 55.73C35.9099 57.38 36.85 58.87 38.06 60.17C39.5 61.71 41.26 62.88 43.2 63.63C44.77 64.24 46.46 64.56 48.17 64.56H52.2399C53.9399 64.56 55.5899 64.26 57.1299 63.67C58.9999 62.97 60.7 61.86 62.14 60.38C63.43 59.05 64.43 57.51 65.11 55.8L65.1499 55.69C65.9099 53.56 66.8799 51.6 68.0399 49.86C68.4999 49.17 68.98 48.52 69.47 47.92C74.78 42.77 77.8499 35.47 77.8799 27.88C77.9099 21.57 75.83 15.45 72.03 10.61ZM50.8499 49.42C50.7999 49.82 50.45 50.12 50.05 50.12C49.74 50.12 49.4599 49.95 49.3199 49.66C49.2699 49.55 49.2399 49.43 49.2399 49.31C49.2399 48.86 49.6 48.5 50.05 48.5C50.5 48.5 50.86 48.86 50.86 49.31C50.86 49.35 50.8499 49.38 50.8499 49.42ZM68.0099 46.48L67.9299 46.57C67.3699 47.24 66.84 47.97 66.33 48.73C65.08 50.62 64.03 52.73 63.22 55C63.21 55.03 63.2 55.05 63.19 55.08C62.61 56.53 61.77 57.84 60.67 58.96C59.37 60.29 57.77 61.3 56.03 61.9C56.03 61.9 53.9299 62.55 51.1299 62.49V51.36C51.8899 50.96 52.3499 50.18 52.3499 49.32C52.3499 48.05 51.3099 47.01 50.0399 47.01C48.7699 47.01 47.7299 48.05 47.7299 49.32C47.7299 50.23 48.26 51.05 49.09 51.43V62.45C46.23 62.51 44.2699 61.85 44.2699 61.85C42.4799 61.22 40.85 60.16 39.56 58.78C38.53 57.68 37.7299 56.4 37.1799 54.99L37.1599 54.93C36.4299 52.81 35.3699 50.73 34.0199 48.74C33.4799 47.95 32.8999 47.18 32.2899 46.44L32.22 46.36C25.98 40.12 23.2199 30.95 25.0199 22.45L25.19 21.74C26.96 14.44 32.0399 8.08 38.7699 4.73C42.2799 2.98 46.23 2.06 50.19 2.06C58.02 2.06 65.5899 5.73 70.4299 11.89C73.9399 16.36 75.8699 22.04 75.8499 27.87C75.8099 34.92 72.9599 41.71 68.0099 46.48Z" fill="white"></path><path d="M139.39 23.6802H113.58V115.94H139.39V23.6802Z" fill="#F8D525"></path><path d="M117.77 33.6803H123.85L128.11 42.8903L132.34 33.6803H138.36L130.74 48.4103V55.6803H125.38V48.4103L117.77 33.6803Z" fill="white"></path><path d="M150.93 55.9003C144.69 55.9003 139.62 51.2303 139.62 44.6203C139.62 38.0103 144.7 33.3703 150.93 33.3703C157.2 33.3703 162.18 38.0103 162.18 44.6203C162.18 51.2303 157.17 55.9003 150.93 55.9003ZM150.93 51.0103C154.44 51.0103 156.73 48.4703 156.73 44.6203C156.73 40.7003 154.44 38.2303 150.93 38.2303C147.36 38.2303 145.1 40.7103 145.1 44.6203C145.1 48.4703 147.36 51.0103 150.93 51.0103Z" fill="white"></path><path d="M165.07 33.6803H170.43V46.8403C170.43 49.4403 171.71 50.9503 174.25 50.9503C176.79 50.9503 178.14 49.4503 178.14 46.8403V33.6803H183.5V46.8103C183.5 52.8903 179.24 55.9003 174.16 55.9003C169.05 55.9003 165.07 52.8903 165.07 46.8103V33.6803Z" fill="white"></path><path d="M206.95 33.6803V55.6803H201.59L192.63 42.1103V55.6803H187.27V33.6803H192.63L201.59 47.3103V33.6803H206.95Z" fill="white"></path><path d="M231.36 40.6403H225.44C224.63 39.1703 223.12 38.3803 221.11 38.3803C217.66 38.3803 215.37 40.8203 215.37 44.6503C215.37 48.7203 217.69 51.1103 221.54 51.1103C224.2 51.1103 226.05 49.7003 226.87 47.2203H220.07V43.2703H231.73V48.2503C230.6 52.0403 226.93 55.8303 221.14 55.8303C214.56 55.8303 209.92 51.2203 209.92 44.6403C209.92 38.0603 214.53 33.4203 221.11 33.4203C226.38 33.4303 230.2 36.1203 231.36 40.6403Z" fill="white"></path><path d="M133.19 79.5403H124.98L123.66 83.4303H118.05L126.01 61.4303H132.22L140.18 83.4303H134.51L133.19 79.5403ZM129.08 67.3503L126.38 75.4003H131.8L129.08 67.3503Z" fill="white"></path><path d="M150.56 83.6403C145.83 83.6403 142.13 81.2903 141.97 76.8403H147.67C147.83 78.5303 148.89 79.3503 150.4 79.3503C151.97 79.3503 152.97 78.5703 152.97 77.2803C152.97 73.2103 141.97 75.4003 142.03 67.6003C142.03 63.4303 145.45 61.1103 150.05 61.1103C154.85 61.1103 158.07 63.4903 158.29 67.6903H152.49C152.4 66.2803 151.39 65.4303 149.95 65.4003C148.67 65.3703 147.69 66.0303 147.69 67.4103C147.69 71.2303 158.57 69.5103 158.57 76.8803C158.58 80.5703 155.7 83.6403 150.56 83.6403Z" fill="white"></path><path d="M170.56 75.5303H167.23V83.4303H161.87V61.4303H170.55C175.94 61.4303 178.64 64.4703 178.64 68.5103C178.64 72.1403 176.17 75.5303 170.56 75.5303ZM170.15 71.2603C172.28 71.2603 173.19 70.1903 173.19 68.5003C173.19 66.8103 172.28 65.7403 170.15 65.7403H167.23V71.2603H170.15Z" fill="white"></path><path d="M181.43 61.4203H186.79V83.4203H181.43V61.4203Z" fill="white"></path><path d="M199.67 61.4203C205.06 61.4203 207.76 64.5203 207.76 68.3503C207.76 71.1103 206.26 73.7103 202.87 74.7103L207.95 83.4203H201.9L197.32 75.1103H196.04V83.4203H190.68V61.4203H199.67ZM199.36 65.8703H196.04V71.3203H199.36C201.37 71.3203 202.31 70.2903 202.31 68.5603C202.31 66.9403 201.37 65.8703 199.36 65.8703Z" fill="white"></path><path d="M211.12 61.4203H216.48V83.4203H211.12V61.4203Z" fill="white"></path><path d="M240.05 61.4203V83.4203H234.69L225.73 69.8503V83.4203H220.37V61.4203H225.73L234.69 75.0503V61.4203H240.05Z" fill="white"></path><path d="M264.47 68.3803H258.55C257.74 66.9103 256.23 66.1203 254.22 66.1203C250.77 66.1203 248.48 68.5603 248.48 72.3903C248.48 76.4603 250.8 78.8503 254.65 78.8503C257.31 78.8503 259.16 77.4403 259.98 74.9603H253.18V71.0103H264.84V75.9903C263.71 79.7803 260.04 83.5703 254.25 83.5703C247.67 83.5703 243.03 78.9603 243.03 72.3803C243.03 65.8003 247.64 61.1603 254.22 61.1603C259.48 61.1703 263.31 63.8703 264.47 68.3803Z" fill="white"></path><path d="M118.3 89.1603H135.32V93.4503H129.49V111.16H124.13V93.4503H118.3V89.1603Z" fill="white"></path><path d="M151.72 102.11H143.38V111.17H138.02V89.1703H143.38V97.7903H151.72V89.1703H157.08V111.17H151.72V102.11Z" fill="white"></path><path d="M160.93 89.1603H166.29V111.16H160.93V89.1603Z" fill="white"></path><path d="M189.86 89.1603V111.16H184.5L175.54 97.5903V111.16H170.18V89.1603H175.54L184.5 102.79V89.1603H189.86Z" fill="white"></path><path d="M199.11 101.45V111.17H193.75V89.1703H199.11V98.8203L206.44 89.1703H212.74L204.21 99.9503L213.05 111.17H206.5L199.11 101.45Z" fill="white"></path><path d="M229.08 93.4603H220.96V97.9103H228.14V102.05H220.96V106.88H229.08V111.17H215.6V89.1703H229.08V93.4603Z" fill="white"></path><path d="M241.55 89.1603C246.94 89.1603 249.64 92.2603 249.64 96.0903C249.64 98.8503 248.14 101.45 244.75 102.45L249.83 111.16H243.78L239.2 102.85H237.92V111.16H232.56V89.1603H241.55ZM241.24 93.6103H237.92V99.0603H241.24C243.25 99.0603 244.19 98.0303 244.19 96.3003C244.19 94.6803 243.25 93.6103 241.24 93.6103Z" fill="white"></path><path d="M260.96 111.39C256.23 111.39 252.53 109.04 252.37 104.59H258.07C258.23 106.28 259.29 107.1 260.8 107.1C262.37 107.1 263.37 106.32 263.37 105.03C263.37 100.96 252.37 103.15 252.43 95.3503C252.43 91.1803 255.85 88.8603 260.45 88.8603C265.25 88.8603 268.47 91.2403 268.69 95.4403H262.89C262.8 94.0303 261.79 93.1803 260.35 93.1503C259.07 93.1203 258.09 93.7803 258.09 95.1603C258.09 98.9803 268.97 97.2603 268.97 104.63C268.98 108.31 266.1 111.39 260.96 111.39Z" fill="white"></path><path d="M254.93 27.3003H259.66V28.3303H257.96V32.2703H256.62V28.3303H254.93V27.3003ZM265.16 32.2703L265.15 29.4403L263.64 31.7603H263.04L261.53 29.5103V32.2703H260.27V27.3103H261.37L263.36 30.3003L265.3 27.3103H266.39L266.41 32.2703H265.16Z" fill="white"></path></svg>